<svg width="170" height="170" viewBox="0 0 170 170" fill="none" xmlns="http://www.w3.org/2000/svg">
<path d="M49.1762 173.261C49.1762 173.261 173.547 132.622 167.507 12.26L228.09 77.4193L70.0153 212.299L49.1709 173.261H49.1762Z" fill="#F3FAFF"/>
<path opacity="0.3" d="M-13.6172 148.867C-13.6172 148.867 109.813 192.291 178.163 93.0633L186.662 181.659L-20.7885 192.54L-13.6119 148.867H-13.6172Z" fill="#F4CDBA"/>
<path opacity="0.9" d="M117.956 192.466C117.956 192.466 -21.224 134.35 -21.5746 -39.2965L-43.8851 185.38L117.956 192.466Z" fill="#F4CDBA"/>
<path d="M187.103 182.898C187.103 182.898 21.3678 177.582 -44.5013 89.6985L-31.3966 212.666L187.103 182.898Z" fill="#CDC8C7"/>
<path opacity="0.2" d="M66.6332 -26.4824C66.6332 -26.4824 187.209 23.7447 187.517 173.82L206.846 -20.3585L66.6332 -26.4824Z" fill="#F4CDBA"/>
<path opacity="0.5" d="M5.97989 -6.65595C5.97989 -6.65595 149.566 -2.06187 206.633 73.8922L195.28 -32.3828L5.97989 -6.65595Z" fill="#898488"/>
<path d="M92.4218 -12.5961C92.4218 -12.5961 183.774 5.817 191.681 90.4355L211.005 -18.7338L117.895 -37.5879L92.4218 -12.5961Z" fill="#898488"/>
</svg>
