<svg width="15" height="15" viewBox="0 0 15 15" fill="none" xmlns="http://www.w3.org/2000/svg">
<path fill-rule="evenodd" clip-rule="evenodd" d="M14.5 1.0833C14.5 0.928601 14.4385 0.780236 14.3292 0.670845C14.2198 0.561455 14.0714 0.5 13.9167 0.5H6.91707C6.76236 0.5 6.614 0.561455 6.50461 0.670845C6.39522 0.780236 6.33376 0.928601 6.33376 1.0833C6.33376 1.238 6.39522 1.38637 6.50461 1.49576C6.614 1.60515 6.76236 1.66661 6.91707 1.66661H12.5086L0.671061 13.503C0.616828 13.5572 0.573808 13.6216 0.544457 13.6925C0.515107 13.7633 0.5 13.8393 0.5 13.916C0.5 13.9927 0.515107 14.0686 0.544457 14.1395C0.573808 14.2103 0.616828 14.2747 0.671061 14.3289C0.725294 14.3832 0.789678 14.4262 0.860537 14.4555C0.931396 14.4849 1.00734 14.5 1.08404 14.5C1.16074 14.5 1.23668 14.4849 1.30754 14.4555C1.3784 14.4262 1.44278 14.3832 1.49702 14.3289L13.3334 2.4914V8.08293C13.3334 8.23764 13.3948 8.386 13.5042 8.49539C13.6136 8.60478 13.762 8.66624 13.9167 8.66624C14.0714 8.66624 14.2198 8.60478 14.3292 8.49539C14.4385 8.386 14.5 8.23764 14.5 8.08293V1.0833Z" fill="white" stroke="white"/>
</svg>
