<svg width="109" height="82" viewBox="0 0 109 82" fill="none" xmlns="http://www.w3.org/2000/svg">
<path d="M54.44 59.2001C53.34 59.2001 52.44 58.3001 52.44 57.2001V52.8301C52.44 51.7301 53.34 50.8301 54.44 50.8301C55.54 50.8301 56.44 51.7301 56.44 52.8301V57.2001C56.44 58.3001 55.54 59.2001 54.44 59.2001Z" fill="#3E3A39"/>
<path d="M33.95 40.7199C32.85 40.7199 31.95 39.8199 31.95 38.7199V32.6699C31.95 31.5699 32.85 30.6699 33.95 30.6699C35.05 30.6699 35.95 31.5699 35.95 32.6699V38.7199C35.95 39.8199 35.05 40.7199 33.95 40.7199Z" fill="#F8F8F8"/>
<path d="M74.93 40.7199C73.83 40.7199 72.93 39.8199 72.93 38.7199V33.6699C72.93 32.5699 73.83 31.6699 74.93 31.6699C76.03 31.6699 76.93 32.5699 76.93 33.6699V38.7199C76.93 39.8199 76.03 40.7199 74.93 40.7199Z" fill="#F8F8F8"/>
<path d="M26.82 63.5001C25.81 63.5001 24.95 62.7401 24.83 61.7201C23.37 48.3301 11.54 40.9401 11.42 40.8701C10.83 40.5101 10.46 39.8601 10.46 39.1601V11.8001C10.46 7.81006 13.71 4.56006 17.7 4.56006C21.69 4.56006 24.94 7.81006 24.94 11.8001V39.1601C24.94 40.2601 24.04 41.1601 22.94 41.1601C21.84 41.1601 20.94 40.2601 20.94 39.1601V11.8001C20.94 10.0101 19.48 8.56006 17.7 8.56006C15.92 8.56006 14.46 10.0101 14.46 11.8001V38.0801C17.61 40.2901 27.37 48.1201 28.81 61.2801C28.93 62.3801 28.14 63.3601 27.04 63.4901C26.97 63.4901 26.89 63.5001 26.82 63.5001Z" fill="#F8F8F8"/>
<path d="M22.95 41.16C21.85 41.16 20.95 40.26 20.95 39.16V7.24C20.95 3.25 24.2 0 28.19 0C32.18 0 35.43 3.25 35.43 7.24V10.5C35.43 11.6 34.53 12.5 33.43 12.5C32.33 12.5 31.43 11.6 31.43 10.5V7.24C31.43 5.45 29.97 4 28.19 4C26.41 4 24.95 5.46 24.95 7.24V39.16C24.95 40.26 24.05 41.16 22.95 41.16Z" fill="#F8F8F8"/>
<path d="M30.4 81.86H26.01C11.67 81.86 0 70.19 0 55.85V29.01C0 28.62 0.0600002 25.06 2.4 22.92C3.61 21.81 5.2 21.3 7.01 21.42C9.23 21.33 13.34 22.88 14.45 29.72C14.63 30.81 13.88 31.84 12.79 32.01C11.7 32.19 10.67 31.44 10.5 30.35C9.71 25.46 7.42 25.41 7.15 25.41C7.02 25.42 6.95 25.41 6.82 25.41C5.82 25.32 5.36 25.62 5.1 25.86C4.18 26.7 4 28.55 4 29V55.84C4 67.98 13.87 77.85 26.01 77.85H30.4C42.54 77.85 52.41 67.98 52.41 55.84C52.41 54.74 53.31 53.84 54.41 53.84C55.51 53.84 56.41 54.74 56.41 55.84C56.41 70.18 44.74 81.85 30.4 81.85V81.86Z" fill="#F8F8F8"/>
<path d="M82.06 63.5001C81.99 63.5001 81.91 63.5001 81.84 63.4901C80.74 63.3701 79.95 62.3801 80.07 61.2801C81.51 48.1201 91.27 40.2901 94.42 38.0801V11.8001C94.42 10.0101 92.96 8.56006 91.18 8.56006C89.4 8.56006 87.94 10.0101 87.94 11.8001V39.1601C87.94 40.2601 87.04 41.1601 85.94 41.1601C84.84 41.1601 83.94 40.2601 83.94 39.1601V11.8001C83.94 7.81006 87.19 4.56006 91.18 4.56006C95.17 4.56006 98.42 7.81006 98.42 11.8001V39.1601C98.42 39.8601 98.06 40.5101 97.46 40.8701C97.34 40.9401 85.51 48.3301 84.05 61.7201C83.94 62.7401 83.07 63.5001 82.06 63.5001Z" fill="#F8F8F8"/>
<path d="M85.93 41.16C84.83 41.16 83.93 40.26 83.93 39.16V7.24C83.93 5.45 82.47 4 80.69 4C78.91 4 77.45 5.46 77.45 7.24V9.83C77.45 10.93 76.55 11.83 75.45 11.83C74.35 11.83 73.45 10.93 73.45 9.83V7.24C73.45 3.25 76.7 0 80.69 0C84.68 0 87.93 3.25 87.93 7.24V39.16C87.93 40.26 87.03 41.16 85.93 41.16Z" fill="#F8F8F8"/>
<path d="M82.87 81.8598H78.48C64.14 81.8598 52.47 70.1898 52.47 55.8498C52.47 54.7498 53.37 53.8498 54.47 53.8498C55.57 53.8498 56.47 54.7498 56.47 55.8498C56.47 67.9898 66.34 77.8598 78.48 77.8598H82.87C95.01 77.8598 104.88 67.9898 104.88 55.8498V29.0098C104.88 28.4498 104.66 26.6698 103.78 25.8598C103.52 25.6298 103.06 25.3298 102.07 25.4198C101.94 25.4298 101.81 25.4298 101.68 25.4198C101.47 25.4098 99.18 25.4798 98.39 30.3598C98.21 31.4498 97.18 32.1898 96.1 32.0198C95.01 31.8398 94.27 30.8198 94.44 29.7298C95.54 22.8898 99.66 21.3298 101.88 21.4298C103.69 21.3098 105.28 21.8198 106.49 22.9298C108.83 25.0698 108.89 28.6298 108.88 29.0298V55.8598C108.88 70.1998 97.21 81.8698 82.87 81.8698V81.8598Z" fill="#F8F8F8"/>
<path d="M54.44 54.1098C53.44 54.1098 52.47 53.7598 51.7 53.1198C51.27 52.7598 50.85 52.3898 50.44 51.9798L32.66 34.1998C32.27 33.8098 31.9 33.3998 31.51 32.9398C25.47 25.6598 25.96 15.1198 32.66 8.42982C36.12 4.96982 40.69 3.06982 45.54 3.06982C48.67 3.06982 51.71 3.86982 54.43 5.39982C57.15 3.86982 60.19 3.06982 63.32 3.06982C68.17 3.06982 72.74 4.97982 76.2 8.42982C82.89 15.1198 83.38 25.6598 77.35 32.9398C76.97 33.3998 76.6 33.8098 76.2 34.1998L58.43 51.9698C58.02 52.3798 57.61 52.7498 57.17 53.1198C56.41 53.7498 55.43 54.1098 54.44 54.1098ZM45.55 7.06982C41.77 7.06982 38.2 8.55982 35.5 11.2598C30.28 16.4798 29.89 24.6998 34.6 30.3798C34.9 30.7398 35.2 31.0698 35.5 31.3698L53.27 49.1398C53.59 49.4598 53.91 49.7498 54.25 50.0298C54.39 50.1498 54.49 50.1398 54.62 50.0298C54.97 49.7398 55.29 49.4498 55.61 49.1298L73.38 31.3598C73.69 31.0498 73.98 30.7298 74.28 30.3698C78.99 24.6898 78.61 16.4698 73.38 11.2498C70.67 8.54982 67.1 7.05982 63.33 7.05982C60.56 7.05982 57.87 7.86982 55.54 9.39982C54.87 9.83982 54 9.83982 53.34 9.39982C51.02 7.86982 48.32 7.05982 45.55 7.05982V7.06982Z" fill="#FF8038"/>
<path d="M43.19 18.9C43.19 17.05 41.69 15.54 39.83 15.54C37.97 15.54 36.47 17.04 36.47 18.9C36.47 20.76 37.97 22.26 39.83 22.26C41.69 22.26 43.19 20.76 43.19 18.9Z" fill="#FF8038"/>
</svg>
