<svg width="36" height="36" viewBox="0 0 36 36" fill="none" xmlns="http://www.w3.org/2000/svg">
<path d="M17.5137 8.5293C12.5449 8.5293 8.53711 12.5371 8.53711 17.5059C8.53711 22.4746 12.5449 26.4824 17.5137 26.4824C22.4824 26.4824 26.4902 22.4746 26.4902 17.5059C26.4902 12.5371 22.4824 8.5293 17.5137 8.5293ZM17.5137 23.3418C14.3027 23.3418 11.6777 20.7246 11.6777 17.5059C11.6777 14.2871 14.2949 11.6699 17.5137 11.6699C20.7324 11.6699 23.3496 14.2871 23.3496 17.5059C23.3496 20.7246 20.7246 23.3418 17.5137 23.3418ZM28.9512 8.16211C28.9512 9.32617 28.0137 10.2559 26.8574 10.2559C25.6934 10.2559 24.7637 9.31836 24.7637 8.16211C24.7637 7.00586 25.7012 6.06836 26.8574 6.06836C28.0137 6.06836 28.9512 7.00586 28.9512 8.16211ZM34.8965 10.2871C34.7637 7.48242 34.123 4.99805 32.0684 2.95117C30.0215 0.904297 27.5371 0.263672 24.7324 0.123047C21.8418 -0.0410156 13.1777 -0.0410156 10.2871 0.123047C7.49023 0.255859 5.00586 0.896484 2.95117 2.94336C0.896485 4.99023 0.263672 7.47461 0.123047 10.2793C-0.0410156 13.1699 -0.0410156 21.834 0.123047 24.7246C0.255859 27.5293 0.896485 30.0137 2.95117 32.0605C5.00586 34.1074 7.48242 34.748 10.2871 34.8887C13.1777 35.0527 21.8418 35.0527 24.7324 34.8887C27.5371 34.7559 30.0215 34.1152 32.0684 32.0605C34.1152 30.0137 34.7559 27.5293 34.8965 24.7246C35.0605 21.834 35.0605 13.1777 34.8965 10.2871ZM31.1621 27.8262C30.5527 29.3574 29.373 30.5371 27.834 31.1543C25.5293 32.0684 20.0605 31.8574 17.5137 31.8574C14.9668 31.8574 9.49023 32.0605 7.19336 31.1543C5.66211 30.5449 4.48242 29.3652 3.86523 27.8262C2.95117 25.5215 3.16211 20.0527 3.16211 17.5059C3.16211 14.959 2.95898 9.48242 3.86523 7.18555C4.47461 5.6543 5.6543 4.47461 7.19336 3.85742C9.49805 2.94336 14.9668 3.1543 17.5137 3.1543C20.0605 3.1543 25.5371 2.95117 27.834 3.85742C29.3652 4.4668 30.5449 5.64648 31.1621 7.18555C32.0762 9.49023 31.8652 14.959 31.8652 17.5059C31.8652 20.0527 32.0762 25.5293 31.1621 27.8262Z" fill="white"/>
</svg>
