<svg width="41" height="40" viewBox="0 0 41 40" fill="none" xmlns="http://www.w3.org/2000/svg">
<path d="M20.5 1.5C31.2835 1.5 39.4997 8.56865 39.5 16.6357C39.5 19.859 38.2708 22.8189 35.4971 25.8594L35.4736 25.8867C33.4486 28.2172 30.0935 30.8773 26.9014 33.1025C24.0699 35.0763 21.5248 36.5983 20.3223 37.2002C20.3377 37.1078 20.3538 37.0138 20.3691 36.9219C20.4025 36.7218 20.4346 36.5311 20.458 36.3906C20.4697 36.3204 20.4787 36.2619 20.4854 36.2217C20.4886 36.2019 20.4914 36.1864 20.4932 36.1758C20.4941 36.1704 20.4947 36.1658 20.4951 36.1631C20.4953 36.1618 20.496 36.1608 20.4961 36.1602V36.1592L20.5 36.1338L20.5039 36.1094C20.5418 35.8216 20.586 35.4143 20.5869 34.9873C20.5878 34.5885 20.5526 34.0282 20.3428 33.5029L20.3418 33.499L20.2764 33.3506C19.9264 32.631 19.2757 32.2421 18.8623 32.043C18.371 31.8064 17.8474 31.6654 17.46 31.582L17.4004 31.5693L17.3408 31.5615L16.9043 31.5C7.78614 30.1239 1.5 23.7675 1.5 16.6357C1.50031 8.56998 9.71658 1.5 20.5 1.5Z" fill="white" stroke="black" stroke-width="3"/>
<path d="M16.3349 12.2038H14.8963C14.6753 12.2038 14.4966 12.3825 14.4966 12.6021V21.5346C14.4966 21.7542 14.6753 21.933 14.8963 21.933H16.3349C16.5559 21.933 16.7346 21.7542 16.7346 21.5346V12.6021C16.7346 12.3825 16.5559 12.2038 16.3349 12.2038Z" fill="black"/>
<path d="M26.2318 12.2036H24.7946C24.5737 12.2036 24.3949 12.3824 24.3949 12.602V17.9085L20.3017 12.381C20.2918 12.3669 20.2819 12.3528 20.2707 12.3402L20.2679 12.3373C20.2594 12.3289 20.2524 12.3204 20.2439 12.3134C20.2411 12.3106 20.2383 12.3092 20.2369 12.3064C20.2299 12.3007 20.2228 12.2937 20.2158 12.2881C20.213 12.2853 20.2087 12.2824 20.2059 12.2796C20.1989 12.2754 20.1933 12.2698 20.1848 12.2656C20.1806 12.2627 20.1764 12.2613 20.1722 12.2585C20.1651 12.2543 20.1581 12.2501 20.151 12.2458C20.1468 12.2444 20.1426 12.2416 20.1384 12.2402C20.1313 12.2374 20.1229 12.2332 20.1158 12.2304C20.1116 12.2304 20.1074 12.2275 20.1032 12.2261C20.0947 12.2233 20.0877 12.2205 20.0793 12.2177C20.075 12.2177 20.0708 12.2149 20.0652 12.2149C20.0581 12.2135 20.0497 12.2107 20.0427 12.2092C20.037 12.2092 20.0314 12.2078 20.0258 12.2064C20.0187 12.2064 20.0117 12.2036 20.0047 12.2036C19.9976 12.2036 19.9906 12.2036 19.9835 12.2036C19.9779 12.2036 19.9737 12.2036 19.9695 12.2036H18.5323C18.3113 12.2036 18.1326 12.3824 18.1326 12.602V21.5345C18.1326 21.7541 18.3113 21.9328 18.5323 21.9328H19.9695C20.1905 21.9328 20.3692 21.7541 20.3692 21.5345V16.2293L24.4667 21.7639C24.4948 21.8033 24.53 21.8371 24.568 21.8624C24.5694 21.8624 24.5708 21.8638 24.5722 21.8667C24.5807 21.8709 24.5891 21.8765 24.5976 21.8807C24.6018 21.8835 24.6046 21.885 24.6088 21.8878C24.6145 21.8906 24.6215 21.8934 24.6286 21.8962C24.6356 21.899 24.6412 21.9018 24.6483 21.9047C24.6525 21.9061 24.6553 21.9075 24.6595 21.9089C24.6694 21.9117 24.6778 21.9145 24.6877 21.9173C24.6905 21.9173 24.6919 21.9173 24.6933 21.9187C24.7257 21.9286 24.7595 21.9314 24.7946 21.9314H26.2318C26.4528 21.9314 26.6315 21.7526 26.6315 21.5331V12.6006C26.6315 12.381 26.4528 12.2022 26.2318 12.2022" fill="black"/>
<path d="M12.8682 19.6962H8.96077V12.602C8.96077 12.381 8.782 12.2022 8.56242 12.2022H7.12387C6.90429 12.2022 6.72412 12.381 6.72412 12.602V21.5331C6.72412 21.64 6.76776 21.7372 6.83532 21.8089C6.83532 21.8104 6.83813 21.8132 6.84095 21.8146C6.84236 21.816 6.84517 21.8188 6.84658 21.8202C6.91837 21.8892 7.01549 21.9314 7.12247 21.9314H12.8668C13.0864 21.9314 13.2666 21.7526 13.2666 21.5317V20.0931C13.2666 19.8721 13.0878 19.6948 12.8668 19.6948" fill="black"/>
<path d="M34.1719 14.4404C34.3929 14.4404 34.5703 14.2616 34.5703 14.0407V12.6021C34.5703 12.3811 34.3915 12.2038 34.1719 12.2038H28.4276C28.3192 12.2038 28.2221 12.246 28.1503 12.3164C28.1503 12.3178 28.1475 12.3192 28.1461 12.3206C28.1433 12.3234 28.1404 12.3248 28.139 12.3276C28.0701 12.3994 28.0278 12.4951 28.0278 12.6021V21.5332C28.0278 21.6402 28.0715 21.7373 28.139 21.8091C28.1404 21.8091 28.1433 21.8133 28.1447 21.8147C28.1461 21.8161 28.1489 21.8189 28.1503 21.8204C28.2221 21.8893 28.3192 21.933 28.4262 21.933H34.1705C34.3915 21.933 34.5689 21.7542 34.5689 21.5346V20.0961C34.5689 19.8751 34.3901 19.6977 34.1705 19.6977H30.2645V18.1874H34.1705C34.3915 18.1874 34.5689 18.0086 34.5689 17.7876V16.3505C34.5689 16.1295 34.3901 15.9507 34.1705 15.9507H30.2645V14.4418H34.1705L34.1719 14.4404Z" fill="black"/>
</svg>
