<svg width="26" height="26" viewBox="0 0 26 26" fill="none" xmlns="http://www.w3.org/2000/svg">
<path d="M6.68453 12.8H0.799988C0.799988 14.4536 1.13518 16.0328 1.74598 17.4704C2.35678 18.908 3.22829 20.1966 4.31582 21.2842C5.40334 22.3717 6.69198 23.2506 8.1296 23.854C9.56721 24.4573 11.1464 24.8 12.8 24.8C11.9583 24.8 11.1538 24.4648 10.4238 23.854C9.69384 23.2432 9.0309 22.3642 8.47969 21.2842C7.92848 20.1966 7.48155 18.908 7.1687 17.4704C6.85585 16.0328 6.69198 14.4536 6.69198 12.8H6.68453Z" stroke="black" stroke-width="1.6" stroke-linecap="round" stroke-linejoin="round"/>
<path d="M12.8 0.799988C11.1464 0.799988 9.56721 1.13518 8.1296 1.74598C6.69198 2.35678 5.40334 3.23574 4.31582 4.31582C3.22829 5.40334 2.34934 6.69198 1.74598 8.12959C1.13518 9.56721 0.799988 11.1464 0.799988 12.8H6.68453C6.68453 11.1464 6.85585 9.56721 7.16125 8.12959C7.46665 6.69198 7.92103 5.40334 8.47224 4.31582C9.02345 3.22829 9.68639 2.34934 10.4164 1.74598C11.1464 1.13518 11.9508 0.799988 12.7925 0.799988H12.8Z" stroke="black" stroke-width="1.6" stroke-linecap="round" stroke-linejoin="round"/>
<path d="M12.7995 0.799988C13.6412 0.799988 14.4457 1.13518 15.1756 1.74598C15.9056 2.35678 16.5686 3.23574 17.1198 4.31582C17.671 5.40334 18.1179 6.69198 18.4308 8.12959C18.7436 9.56721 18.9075 11.1464 18.9075 12.8H24.792C24.792 11.1464 24.4568 9.56721 23.846 8.12959C23.2352 6.69198 22.3637 5.40334 21.2762 4.31582C20.1887 3.22829 18.9 2.34934 17.4624 1.74598C16.0248 1.13518 14.4457 0.799988 12.792 0.799988H12.7995Z" stroke="black" stroke-width="1.6" stroke-linecap="round" stroke-linejoin="round"/>
<path d="M12.8 24.8C14.4536 24.8 16.0328 24.4648 17.4704 23.854C18.908 23.2432 20.1966 22.3642 21.2842 21.2842C22.3717 20.1966 23.2506 18.908 23.854 17.4704C24.4648 16.0328 24.8 14.4536 24.8 12.8H18.9154C18.9154 14.4536 18.7441 16.0328 18.4387 17.4704C18.1333 18.908 17.6789 20.1966 17.1277 21.2842C16.5765 22.3717 15.9136 23.2506 15.1836 23.854C14.4536 24.4573 13.6491 24.8 12.8074 24.8H12.8Z" stroke="black" stroke-width="1.6" stroke-linecap="round" stroke-linejoin="round"/>
<path d="M18.9155 12.8C18.9155 11.1464 18.7442 9.56721 18.4388 8.12959C18.1334 6.69198 17.679 5.40334 17.1278 4.31582C16.5766 3.22829 15.9136 2.34934 15.1837 1.74598C14.4537 1.13518 13.6492 0.799988 12.8075 0.799988V12.8H18.9229H18.9155Z" stroke="black" stroke-width="1.6" stroke-linecap="round" stroke-linejoin="round"/>
<path d="M18.9154 12.8H12.8V24.8C13.6417 24.8 14.4462 24.4648 15.1761 23.854C15.9061 23.2432 16.5691 22.3642 17.1203 21.2842C17.6715 20.1966 18.1184 18.908 18.4313 17.4704C18.7441 16.0328 18.908 14.4536 18.908 12.8H18.9154Z" stroke="black" stroke-width="1.6" stroke-linecap="round" stroke-linejoin="round"/>
<path d="M6.68491 12.8H12.8004V0.799988C11.9586 0.799988 11.1542 1.13518 10.4242 1.74598C9.69422 2.35678 9.03128 3.23574 8.48006 4.31582C7.92885 5.40334 7.48193 6.69198 7.16908 8.12959C6.85623 9.56721 6.69235 11.1464 6.69235 12.8H6.68491Z" stroke="black" stroke-width="1.6" stroke-linecap="round" stroke-linejoin="round"/>
<path d="M6.68463 12.8C6.68463 14.4536 6.85596 16.0328 7.16136 17.4704C7.46676 18.908 7.92113 20.1966 8.47234 21.2842C9.02355 22.3717 9.6865 23.2506 10.4165 23.854C11.1465 24.4573 11.9509 24.8 12.7926 24.8V12.8H6.67719H6.68463Z" stroke="black" stroke-width="1.6" stroke-linecap="round" stroke-linejoin="round"/>
</svg>
